<?xml version="1.0" encoding="UTF-8"?>
<svg id="apple" xmlns="http://www.w3.org/2000/svg" viewBox="0 0 274.91 364.27">
  <g id="apple-2" data-name="apple">
    <path d="M228.06,118.77c-44.47-25.71-79.52.82-90.61,11.1-11.09-10.28-46.13-36.81-90.61-11.1C-7.28,150.06,1.6,237.59,30.36,291.3c28.65,53.51,79.13,89.3,107.1,59.9,27.97,29.4,78.45-6.4,107.1-59.9,28.75-53.7,37.63-141.23-16.49-172.53Z" style="fill: #be1e2d;"/>
    <path d="M231.51,109.51c-46.17-26.69-82.55.85-94.06,11.52-11.51-10.67-47.89-38.21-94.06-11.52C-12.8,141.99-3.58,232.86,26.27,288.61c29.74,55.55,82.14,92.71,111.18,62.19,29.04,30.52,81.44-6.64,111.18-62.19,29.85-55.75,39.07-146.62-17.12-179.1Z" style="fill: none; stroke: #231f20; stroke-miterlimit: 10; stroke-width: 5px;"/>
  </g>
  <g>
    <path d="M87.65,50.51s32.43,20.66,42.53,42.77,8.65,55.91,8.65,55.91c0,0-6.14-46.42-23.78-62.44-15.26-13.86-30.28-22.95-34.19-25.83-3.9-2.87-1.45-11.29,6.8-10.42Z" style="fill: #006838;"/>
    <path d="M81.7,39.81s36.96,23.46,49.14,49.14c12.17,25.67,8.59,65,8.59,65,0,0-5.16-51.6-26.78-69.36-18.62-15.29-36.22-25.9-40.82-29.19s.22-16.46,9.88-15.58Z" style="fill: none; stroke: #231f20; stroke-miterlimit: 10; stroke-width: 4px;"/>
  </g>
  <g id="leaf">
    <path d="M129.82,87.27s3.68-92.27,98.09-72.76c0,0,.44,92.47-98.09,72.76Z" style="fill: #006838;"/>
    <path d="M129.82,86.92s4.14-103.82,110.37-81.87c0,0,.5,104.05-110.37,81.87Z" style="fill: none; stroke: #231f20; stroke-miterlimit: 10; stroke-width: 4px;"/>
  </g>
</svg>