<?xml version="1.0" encoding="UTF-8"?>
<svg id="blueberry" xmlns="http://www.w3.org/2000/svg" viewBox="0 0 470.87 291.79">
  <g>
    <circle cx="123.29" cy="126.22" r="101.7" style="fill: #2b3990;"/>
    <circle cx="114.96" cy="114.96" r="112.96" style="fill: none; stroke: #231f20; stroke-miterlimit: 10; stroke-width: 4px;"/>
    <path d="M150.5,117.08l-12.81,23.74c-6.79,1.82-2.49-18.43-7.46-23.4h-29.84c-4.97-4.96,14.96-15.54,16.78-22.33l-15.18-21.65c1.82-6.79,25.34,5.6,32.13,3.78l6.78-24.39c6.79-1.82,5.49,22.51,10.46,27.48l26.84-4.1c4.97,4.97-18.49,12.08-20.31,18.87l18.7,25.12c-1.82,6.79-19.3-4.95-26.09-3.14Z" style="fill: #228fbd;"/>
  </g>
  <g>
    <circle cx="351.3" cy="128.2" r="101.7" style="fill: #2b3990;"/>
    <circle cx="355.9" cy="114.97" r="112.96" style="fill: none; stroke: #231f20; stroke-miterlimit: 10; stroke-width: 4px;"/>
    <path d="M374.22,145.5l-26.83,2.84c-5.34-4.58,13.8-12.46,15.1-19.37l-16.86-24.62c1.29-6.91,21.29,3.56,27.92,1.23l9.3-24.75c6.63-2.33,9.69,24.07,15.02,28.65l23.95-8.18c5.34,4.58-15.48,17.25-16.77,24.15l18.54,19.83c-1.29,6.91-20.41-8.44-27.04-6.1l-10.17,29.62c-6.63,2.33-6.81-18.73-12.15-23.3Z" style="fill: #228fbd;"/>
  </g>
  <g>
    <circle cx="222.25" cy="183.44" r="101.7" style="fill: #1c75bc;"/>
    <circle cx="209.92" cy="176.8" r="112.96" style="fill: none; stroke: #231f20; stroke-miterlimit: 10; stroke-width: 4px;"/>
    <path d="M242.98,163.58l-1.47,26.94c-5.37,4.54-10.11-15.61-16.72-17.99l-26.99,12.72c-6.61-2.38,6.91-20.45,5.66-27.36l-22.95-13.12c-1.25-6.92,25.31-5.73,30.68-10.27l-4.26-24.95c5.37-4.54,14.56,18.03,21.17,20.41l22.53-15.14c6.61,2.38-11.58,18.81-10.33,25.72l27.63,14.76c1.25,6.92-19.57,3.74-24.94,8.28Z" style="fill: #228fbd;"/>
  </g>
</svg>