<?xml version="1.0" encoding="UTF-8"?>
<svg id="strawberry" xmlns="http://www.w3.org/2000/svg" viewBox="0 0 296.79 355.13">
  <g id="strawberry-2" data-name="strawberry">
    <path d="M264.67,209.77c-9.23,69.81-127.17,145.63-181.95,142.86-22.6-1.14-79.41-105.6-70.08-176.18,9.33-70.58,60.43-99.91,131.01-90.58,70.58,9.33,130.36,53.31,121.03,123.89Z" style="fill: #be1e2d;"/>
    <path d="M269.48,202.04c-9.75,73.79-134.42,153.93-192.32,151-23.88-1.21-83.94-111.61-74.08-186.21,9.86-74.6,63.87-105.6,138.47-95.74,74.6,9.86,137.78,56.35,127.92,130.95Z" style="fill: none; stroke: #231f20; stroke-miterlimit: 10; stroke-width: 4px;"/>
  </g>
  <g>
    <path d="M171.9,127.08s-7.24-72.3,48.7-108.06c0,0,12.78-8.87,11.68,3.2s-37.13,15.51-60.38,104.86Z" style="fill: #006838;"/>
    <path d="M171.92,130.26s-5.87-86.3,59.23-127.91c0,0,12.51-3.32,11.23,10.72s-43.4,13.19-70.47,117.19Z" style="fill: none; stroke: #231f20; stroke-miterlimit: 10; stroke-width: 4px;"/>
  </g>
  <g id="leaf_1" data-name="leaf 1">
    <path d="M168.95,117.13s-3.68-92.27-98.09-72.76c0,0-.44,92.47,98.09,72.76Z" style="fill: #006838;"/>
    <path d="M168.95,116.78s-4.14-103.82-110.37-81.87c0,0-.5,104.05,110.37,81.87Z" style="fill: none; stroke: #231f20; stroke-miterlimit: 10; stroke-width: 4px;"/>
  </g>
  <g id="leaf_2" data-name="leaf 2">
    <path d="M177.6,118.07s55.49,55.76,103.47-10.89c0,0-53.02-58.26-103.47,10.89Z" style="fill: #006838;"/>
    <path d="M177.8,118.28s62.44,62.74,116.43-12.26c0,0-59.66-65.55-116.43,12.26Z" style="fill: none; stroke: #231f20; stroke-miterlimit: 10; stroke-width: 4px;"/>
  </g>
  <g id="seed">
    <path d="M129.53,249.15h-.03c.1-.2.19-.39.27-.59,1.37-3.4-.28-7.27-3.68-8.63s-7.27.28-8.63,3.68c-.08.2-.15.4-.21.6l-.07-.03v.3c-.27,1.08-.26,2.17,0,3.2v14.36s9.84-10.27,9.84-10.27c1-.6,1.85-1.45,2.43-2.53l.08-.09Z" style="fill: #f9ed32;"/>
    <g>
      <path d="M100.38,178.4h-.03c.1-.2.19-.39.27-.59,1.37-3.4-.28-7.27-3.68-8.63s-7.27.28-8.63,3.68c-.08.2-.15.4-.21.6l-.07-.03v.3c-.27,1.08-.26,2.17,0,3.2v14.36s9.84-10.27,9.84-10.27c1-.6,1.85-1.45,2.43-2.53l.08-.09Z" style="fill: #f9ed32;"/>
      <path d="M108.72,211.07h-.03c.1-.2.19-.39.27-.59,1.37-3.4-.28-7.27-3.68-8.63s-7.27.28-8.63,3.68c-.08.2-.15.4-.21.6l-.07-.03v.3c-.27,1.08-.26,2.17,0,3.2v14.36s9.84-10.27,9.84-10.27c1-.6,1.85-1.45,2.43-2.53l.08-.09Z" style="fill: #f9ed32;"/>
      <path d="M151.3,192.26h-.03c.1-.2.19-.39.27-.59,1.37-3.4-.28-7.27-3.68-8.63s-7.27.28-8.63,3.68c-.08.2-.15.4-.21.6l-.07-.03v.3c-.27,1.08-.26,2.17,0,3.2v14.36s9.84-10.27,9.84-10.27c1-.6,1.85-1.45,2.43-2.53l.08-.09Z" style="fill: #f9ed32;"/>
      <path d="M186.29,230.7h-.03c.1-.2.19-.39.27-.59,1.37-3.4-.28-7.27-3.68-8.63s-7.27.28-8.63,3.68c-.08.2-.15.4-.21.6l-.07-.03v.3c-.27,1.08-.26,2.17,0,3.2v14.36s9.84-10.27,9.84-10.27c1-.6,1.85-1.45,2.43-2.53l.08-.09Z" style="fill: #f9ed32;"/>
      <path d="M157.93,280.52h-.03c.1-.2.19-.39.27-.59,1.37-3.4-.28-7.27-3.68-8.63s-7.27.28-8.63,3.68c-.08.2-.15.4-.21.6l-.07-.03v.3c-.27,1.08-.26,2.17,0,3.2v14.36s9.84-10.27,9.84-10.27c1-.6,1.85-1.45,2.43-2.53l.08-.09Z" style="fill: #f9ed32;"/>
      <path d="M192.93,174.03h-.03c.1-.2.19-.39.27-.59,1.37-3.4-.28-7.27-3.68-8.63s-7.27.28-8.63,3.68c-.08.2-.15.4-.21.6l-.07-.03v.3c-.27,1.08-.26,2.17,0,3.2v14.36s9.84-10.27,9.84-10.27c1-.6,1.85-1.45,2.43-2.53l.08-.09Z" style="fill: #f9ed32;"/>
      <path d="M69.62,269.23h-.03c.1-.2.19-.39.27-.59,1.37-3.4-.28-7.27-3.68-8.63s-7.27.28-8.63,3.68c-.08.2-.15.4-.21.6l-.07-.03v.3c-.27,1.08-.26,2.17,0,3.2v14.36s9.84-10.27,9.84-10.27c1-.6,1.85-1.45,2.43-2.53l.08-.09Z" style="fill: #f9ed32;"/>
      <path d="M101.46,296.29h-.03c.1-.2.19-.39.27-.59,1.37-3.4-.28-7.27-3.68-8.63s-7.27.28-8.63,3.68c-.08.2-.15.4-.21.6l-.07-.03v.3c-.27,1.08-.26,2.17,0,3.2v14.36s9.84-10.27,9.84-10.27c1-.6,1.85-1.45,2.43-2.53l.08-.09Z" style="fill: #f9ed32;"/>
      <path d="M51.99,225.28h-.03c.1-.2.19-.39.27-.59,1.37-3.4-.28-7.27-3.68-8.63s-7.27.28-8.63,3.68c-.08.2-.15.4-.21.6l-.07-.03v.3c-.27,1.08-.26,2.17,0,3.2v14.36s9.84-10.27,9.84-10.27c1-.6,1.85-1.45,2.43-2.53l.08-.09Z" style="fill: #f9ed32;"/>
    </g>
  </g>
</svg>