<?xml version="1.0" encoding="UTF-8"?>
<svg id="watermelon" xmlns="http://www.w3.org/2000/svg" viewBox="0 0 336.52 336.52">
  <path id="melon_cover" data-name="melon cover" d="M277.61,2.83L2.83,277.61c75.88,75.88,198.9,75.88,274.78,0s75.88-198.9,0-274.78Z" style="fill: #2bb673; stroke: #231f20; stroke-miterlimit: 10; stroke-width: 4px;"/>
  <path id="melon_1" data-name="melon 1" d="M260.1,23.23L23.23,260.1c65.41,65.41,171.46,65.41,236.87,0s65.41-171.46,0-236.87Z" style="fill: #f4898b;"/>
  <path id="melon_2" data-name="melon 2" d="M243.03,243.03c-55.99,55.99-146.76,55.98-202.74,0L243.03,40.29c55.98,55.98,55.99,146.75,0,202.74Z" style="fill: #ed1c24;"/>
  <g id="seed">
    <path d="M238.33,185.03l.02-.02c.14.16.28.32.43.47,2.62,2.57,6.82,2.53,9.38-.09s2.53-6.82-.09-9.38c-.15-.15-.31-.29-.48-.42l.05-.05-.28-.12c-.89-.66-1.9-1.07-2.95-1.23l-13.26-5.51,5.71,13.03c.17,1.15.64,2.26,1.41,3.21l.05.11Z" style="fill: #231f20;"/>
    <path d="M197.58,225.05l.02-.02c.14.16.28.32.43.47,2.62,2.57,6.82,2.53,9.38-.09s2.53-6.82-.09-9.38c-.15-.15-.31-.29-.48-.42l.05-.05-.28-.12c-.89-.66-1.9-1.07-2.95-1.23l-13.26-5.51,5.71,13.03c.17,1.15.64,2.26,1.41,3.21l.05.11Z" style="fill: #231f20;"/>
    <path d="M216.49,140.26l.02-.02c.14.16.28.32.43.47,2.62,2.57,6.82,2.53,9.38-.09s2.53-6.82-.09-9.38c-.15-.15-.31-.29-.48-.42l.05-.05-.28-.12c-.89-.66-1.9-1.07-2.95-1.23l-13.26-5.51,5.71,13.03c.17,1.15.64,2.26,1.41,3.21l.05.11Z" style="fill: #231f20;"/>
    <path d="M159.64,207.47l.02-.02c.14.16.28.32.43.47,2.62,2.57,6.82,2.53,9.38-.09s2.53-6.82-.09-9.38c-.15-.15-.31-.29-.48-.42l.05-.05-.28-.12c-.89-.66-1.9-1.07-2.95-1.23l-13.26-5.51,5.71,13.03c.17,1.15.64,2.26,1.41,3.21l.05.11Z" style="fill: #231f20;"/>
    <path d="M110.72,225.05l.02-.02c.14.16.28.32.43.47,2.62,2.57,6.82,2.53,9.38-.09s2.53-6.82-.09-9.38c-.15-.15-.31-.29-.48-.42l.05-.05-.28-.12c-.89-.66-1.9-1.07-2.95-1.23l-13.26-5.51,5.71,13.03c.17,1.15.64,2.26,1.41,3.21l.05.11Z" style="fill: #231f20;"/>
    <path d="M160.51,252.9l.02-.02c.14.16.28.32.43.47,2.62,2.57,6.82,2.53,9.38-.09s2.53-6.82-.09-9.38c-.15-.15-.31-.29-.48-.42l.05-.05-.28-.12c-.89-.66-1.9-1.07-2.95-1.23l-13.26-5.51,5.71,13.03c.17,1.15.64,2.26,1.41,3.21l.05.11Z" style="fill: #231f20;"/>
    <path d="M225.94,96.06l.02-.02c.14.16.28.32.43.47,2.62,2.57,6.82,2.53,9.38-.09s2.53-6.82-.09-9.38c-.15-.15-.31-.29-.48-.42l.05-.05-.28-.12c-.89-.66-1.9-1.07-2.95-1.23l-13.26-5.51,5.71,13.03c.17,1.15.64,2.26,1.41,3.21l.05.11Z" style="fill: #231f20;"/>
    <path d="M181.84,158.96l.02-.02c.14.16.28.32.43.47,2.62,2.57,6.82,2.53,9.38-.09s2.53-6.82-.09-9.38c-.15-.15-.31-.29-.48-.42l.05-.05-.28-.12c-.89-.66-1.9-1.07-2.95-1.23l-13.26-5.51,5.71,13.03c.17,1.15.64,2.26,1.41,3.21l.05.11Z" style="fill: #231f20;"/>
  </g>
</svg>